# xmcd CD database file
#
# Track frame offsets:
#	150
#	16761
#	31493
#	42981
#	58306
#	72495
#	89618
#	107769
#	123451
#	136965
#	153965
#	168424
#
# Disc length: 2415 seconds
#
# Revision: 0
# Processed by: cddbd v1.5.2PL0 Copyright (c) Steve Scherf et al.
# Submitted via: CDex 1.79
#
DISCID=a5096d0c
DTITLE=Charlie Allen - Charlie Allen
DYEAR=2003
DGENRE=Country
TTITLE0=Better Said Than Done
TTITLE1=Once In A While
TTITLE2=Gettin` Nowhere Fast
TTITLE3=Cold Cold Heart
TTITLE4=You Wouldn`t Know Love
TTITLE5=As If
TTITLE6=Mind Over Matter
TTITLE7=Thanks To You
TTITLE8=Glass Bottom
TTITLE9=No More Tears
TTITLE10=It`s Only Love
TTITLE11=It Won`t Shut Up
EXTD=YEAR: 2003
EXTT0=
EXTT1=
EXTT2=
EXTT3=
EXTT4=
EXTT5=
EXTT6=
EXTT7=
EXTT8=
EXTT9=
EXTT10=
EXTT11=
PLAYORDER=
